<svg width="209" height="84" viewBox="0 0 209 84" fill="none" xmlns="http://www.w3.org/2000/svg">
<path d="M37.7323 33.6455C37.0744 33.2014 34.5136 30.6466 31.8986 27.4069C30.1191 25.2022 26.3463 24.7731 21.7358 24.5358C19.0648 24.3983 13.379 28.4431 9.21481 30.978C5.30353 33.3591 3.6091 39.6944 2.33399 44.7506C-0.411316 55.6366 1.49478 61.8864 4.31628 68.2636C7.5462 75.564 13.0502 78.4143 15.8947 79.7443C19.8568 81.5968 25.3413 80.2008 30.3356 77.836C34.2203 75.9967 35.9448 73.3279 37.2239 71.9632C38.6203 70.4733 39.1981 76.751 41.432 78.5513C42.3133 79.2615 44.3105 79.1621 46.6249 79.0562C48.3883 78.9756 49.6062 78.1068 50.7036 77.0409C52.1165 75.6686 53.0567 73.6465 53.8096 71.8425C54.4331 70.3485 54.5215 60.6786 54.5876 46.828C54.6276 38.4459 52.2364 33.2333 50.7005 31.0534C50.0304 30.1023 48.9445 29.5916 47.7447 29.3072C46.4203 28.9932 45.1124 29.6286 44.078 30.4874C41.8545 32.3333 40.6867 34.5148 39.4841 34.8515C37.0432 35.5349 35.6532 30.2487 33.4854 27.8698C32.94 27.4837 32.4038 27.2478 31.7317 27.1058C31.0595 26.9637 30.2677 26.9227 29.4518 26.8803" stroke="black" stroke-width="2" stroke-linecap="round"/>
<path d="M28.0976 47.3023C28.2577 46.4879 28.9552 43.571 29.1989 37.8394C29.2725 36.1069 28.0508 35.1946 26.9838 34.3955C24.9213 32.851 21.3589 33.317 18.9375 33.9246C16.4358 34.5523 14.3839 38.1349 11.7947 41.9985C9.26414 45.7747 8.50435 49.2162 8.29776 54.047C8.18359 56.7166 10.6572 58.5548 12.7699 59.8265C13.8034 60.4486 15.2528 60.0394 16.5779 59.5784C19.6434 57.0852 23.7495 52.6545 26.1372 49.4578C27.1381 48.1032 27.7111 47.2923 29.1064 45.0273" stroke="black" stroke-width="2" stroke-linecap="round"/>
<path d="M95.3731 36.8371C93.7291 34.402 90.3443 29.9548 87.43 27.6038C84.8153 25.4946 81.1835 24.4403 75.9436 24.3478C71.675 24.2723 67.5997 28.1828 65.0253 30.4609C63.4179 31.8832 62.8186 34.1305 62.0459 36.6303C60.8239 40.583 60.6652 48.7362 60.73 57.6879C60.7826 64.9456 63.5531 71.5746 66.3211 75.8773C68.1883 78.7798 73.0932 79.1775 75.8736 79.2058C77.0587 79.2179 78.0259 77.9231 78.9468 76.6874C79.8999 75.4084 80.0659 72.8041 80.608 70.7364C81.8716 65.9173 92.1885 78.3732 97.1703 80.6267C98.7465 81.3397 101.607 81.3612 104.866 81.2663C107.802 81.1807 112.159 75.044 116.173 68.7648C117.886 66.0858 117.845 54.5097 117.747 47.6862C117.707 44.9304 117.082 41.723 113.949 36.6721C110.371 30.9058 107.636 27.8165 105.375 26.0361C104.497 25.3452 103.021 25.6628 101.659 25.9081C99.2366 26.3443 97.8541 29.5742 96.7678 32.4089C96.6023 33.0788 96.5222 33.729 96.481 34.3734C96.4398 35.0179 96.4398 35.637 96.296 37.1912" stroke="black" stroke-width="2" stroke-linecap="round"/>
<path d="M151.896 33.536C150.256 33.0777 141.519 32.0992 136.774 32.8186C132.702 33.4359 128.976 41.2156 126.77 44.3341C124.049 48.1807 123.796 60.5434 124.626 69.1383C125.014 73.1547 128.177 76.3138 132.127 78.9078C138.331 82.982 143.134 82.5478 149.548 82.4377C156.874 82.312 164.51 74.7228 167.377 72.1053C170.559 69.1986 173.053 60.0572 175.009 53.4459C175.955 50.247 176.734 47.6764 176.936 43.6687C177.371 35.027 177.653 25.5687 178.65 19.3643C179.523 13.9326 178.956 9.33964 177.397 5.71483C176.786 4.29403 176.153 3.07452 175.212 2.1451C173.376 0.33203 165.279 0.85067 158.307 2.45546C155.775 3.03819 154.129 5.53835 152.775 7.78104C148.611 14.6834 151.826 26.5002 152.769 29.558C153.023 30.2734 153.244 30.8592 153.444 31.537C153.643 32.2149 153.815 32.9671 154.407 33.9309" stroke="black" stroke-width="2" stroke-linecap="round"/>
<path d="M141.946 65.1039C142.22 64.5882 148.093 58.7236 152.521 54.6822C154.53 52.8485 156.575 51.9192 157.884 51.5692C159.737 51.074 161.433 51.5564 162.361 52.0915C163.286 52.6254 163.507 53.8822 163.611 55.1304C163.851 58.0035 161.592 60.4405 159.7 62.8719C158.179 64.8274 153.901 68.5167 150.133 70.7178C147.131 72.4718 143.236 71.0468 142.332 70.3448C141.763 69.3119 141.534 67.708 141.663 65.9935C141.82 65.2678 142.162 64.835 143.231 63.8182" stroke="black" stroke-width="2" stroke-linecap="round"/>
<path d="M198.836 38.363C198.796 38.363 197.637 38.363 195.536 38.567C191.737 38.936 189.317 44.0304 188.243 46.9757C187.836 48.0936 187.949 49.6468 187.861 55.0222C187.658 67.426 187.699 76.1356 188.3 77.2363C189.051 78.6121 190.468 79.3911 191.812 79.9198C193.458 80.5675 195.22 80.5744 196.568 80.3846C198.998 80.0423 201.731 74.4365 204.74 68.1147C207.122 63.1101 207.554 53.4498 207.896 46.4719C206.78 43.3854 204.684 41.1386 201.64 39.4326C200.922 39.1016 200.399 38.9324 199.286 38.758" stroke="black" stroke-width="2" stroke-linecap="round"/>
<path d="M199.805 13.5453C197.022 13.5453 190.236 13.9008 186.654 15.8327C185.305 16.5607 184.83 17.782 184.423 18.823C183.301 21.6852 184.759 26.477 186.786 29.2026C189.313 32.6006 192.989 32.3103 199.046 32.3052C201.219 32.3034 202.841 31.2333 204.405 30.318C205.617 29.6088 206.18 28.22 206.597 26.3717C207.605 21.9045 205.177 18.7942 203.604 16.4389C202.844 15.605 201.926 14.9374 200.719 14.5321C200.028 14.3938 199.18 14.3924 198.307 14.3909" stroke="black" stroke-width="2" stroke-linecap="round"/>
</svg>
