<svg width="158" height="113" viewBox="0 0 158 113" fill="none" xmlns="http://www.w3.org/2000/svg">
<path d="M4 4.22644C4 4.26628 4 6.37375 4.11595 9.82219C4.23269 13.294 9.15027 16.4165 16.5171 22.0832C21.4001 25.8392 28.4964 31.5267 33.408 35.2991C40.7149 40.9113 46.3903 44.4077 51.9459 48.1192C56.774 51.3448 62.2521 56.5615 68.8363 61.2506C74.8187 65.511 77.3481 66.1468 80.0746 66.8416C82.7828 67.5318 86.6356 65.8183 89.3373 64.5551C91.8099 63.3989 95.9061 59.3679 107.229 49.4927C112.142 45.2076 116.544 40.7606 122.748 35.7911C130.589 29.5108 135.936 25.7879 138.052 24.1728C144.849 18.9867 148.523 17.1035 151.165 15.009C153.794 12.9244 152.923 7.82105 152.6 5.52066C152.419 4.22804 150.758 3.66572 149.725 3.05888C148.745 2.48302 147.275 2.3509 133.641 2.2472C120.862 2.15001 96.1851 2.36052 78.5385 2.39174C60.892 2.42296 51.0237 2.37031 42.7047 2.36666C27.915 2.36019 20.0923 2.30467 16.5952 2.04548C10.7627 1.88732 6.63721 2.13904 5.68776 2.84169C5.26665 3.23839 4.96879 3.71654 4.43626 4.94876" stroke="black" stroke-width="4" stroke-linecap="round"/>
<path d="M4.78153 34.3977C4.69883 34.3977 4.16294 34.7858 3.28934 35.7586C0.386129 38.9917 3.1288 49.1626 4.30042 59.6167C4.92056 65.15 4.86469 71.2158 4.6709 76.2863C4.3269 85.287 3.2596 93.828 3.10946 101.112C3.03564 104.693 3.84833 106.06 4.64749 106.934C6.52596 108.987 10.1753 109.048 17.7767 109.701C23.2266 110.169 33.5252 109.897 41.4501 109.885C49.3749 109.873 54.6336 109.757 60.9084 109.794C67.1832 109.831 74.3146 110.024 78.9201 110.263C85.4009 110.598 94.3747 111.056 105.452 110.994C111.578 110.96 115.091 110.082 119.662 109.617C125.087 109.065 130.283 109.64 135.213 110.06C143.286 110.747 148.96 110.427 150.278 110.082C151.52 109.757 152.541 109.025 153.392 107.986C155.396 105.54 154.866 103.313 155.173 96.1385C155.457 89.4958 155.467 76.7415 155.579 69.8693C155.701 62.3877 155.849 54.9188 155.898 44.1894C155.919 39.5824 156.147 37.8588 155.843 36.3246C155.722 35.7094 154.932 35.6907 154.317 35.7207C151.84 35.8412 147.873 38.917 136.157 47.288C131.567 50.5676 126.165 53.4922 120.937 56.7652C116.676 59.4324 107.44 66.6615 99.3324 72.4769C96.6879 74.3737 93.2537 76.6428 88.8554 79.0259C85.1525 81.0321 80.8033 81.6742 76.6283 82.1976C68.1376 83.2622 63.8945 80.5131 60.6549 78.6768C57.4467 76.8582 53.3067 72.9391 49.7579 69.4853C45.6991 65.5351 40.3649 61.8061 35.7806 58.259C32.2898 55.558 30.1726 52.4276 24.4206 46.9313C18.954 41.7077 14.0886 37.8009 11.0547 36.1672C9.77481 35.6693 8.71937 35.2452 7.6399 34.7333C7.04446 34.4811 6.35227 34.2441 5.63911 34" stroke="black" stroke-width="4" stroke-linecap="round"/>
</svg>
