<svg width="134" height="138" viewBox="0 0 134 138" fill="none" xmlns="http://www.w3.org/2000/svg">
<path d="M9.03551 14.1909C8.27208 15.4784 5.81879 20.7932 4.55379 29.2308C4.19292 31.6379 4.26928 34.1935 3.94968 38.0425C3.63008 41.8915 3.08837 46.9766 2.69547 52.1216C1.91767 62.3066 1.90416 68.1363 2.11862 69.7063C2.24946 70.6643 2.50458 71.9377 2.75683 77.6601C3.00907 83.3826 3.27106 93.5126 3.45629 99.0786C3.71146 106.746 4.46505 109.189 5.1498 112.091C6.71142 118.709 7.92915 120.448 9.29281 122.69C10.56 124.773 15.8405 127.071 22.7221 129.752C26.513 131.229 31.5809 132.232 39.6491 133.142C44.7922 133.722 52.0841 134.361 56.7733 134.879C63.3478 135.605 69.982 136.112 78.2998 135.979C84.2503 135.884 88.3506 134.841 91.4086 134.495C97.0683 133.855 102.996 131.91 108.545 130.334C112.708 129.151 116.468 126.621 121.173 123.701C124.117 121.873 125.818 116.189 126.794 112.066C127.391 109.54 129.187 103.836 130.855 95.4203C131.225 93.5544 131.58 92.0219 131.785 86.5492C131.989 81.0765 132.021 71.7078 131.99 64.9626C131.941 54.379 131.632 49.8063 131.392 48.5842C130.774 45.4327 129.603 37.2061 128.143 29.8893C127.034 24.3353 124.032 18.0562 121.535 14.3324C119.681 11.5659 115.328 10.0916 110.304 9.29194C108.065 8.93561 106.818 7.11925 104.853 6.38673C102.256 5.41919 100.298 5.1608 96.8629 4.94552C92.486 4.67124 88.5244 4.56748 85.0625 3.84703C79.3768 2.6638 71.8474 1.95307 63.7037 2.00241C55.4655 2.05233 47.954 3.31744 42.5621 4.34125C38.2348 5.16292 35.2279 5.43835 30.5696 5.87574C21.8572 6.69379 19.5859 8.35413 17.347 9.41389C15.0934 10.6325 13.2367 11.5866 11.691 12.5013C11.0283 12.9222 10.6126 13.2555 9.67528 14.4689" stroke="black" stroke-width="4" stroke-linecap="round"/>
<path d="M108.976 17C108.246 17 105.856 17.4859 103.338 19.3774C101.117 21.0461 100.957 24.5359 101.007 28.643C101.039 31.247 103.132 33.0126 104.673 34.3542C106.186 35.6725 109.297 35.9705 113.536 35.9999C114.913 36.0095 115.8 35.158 116.563 34.4913C118.019 33.2181 117.998 30.6508 118 25.1049C118.001 23.4338 117.068 22.6573 116.317 21.9598C114.49 20.772 111.794 19.5266 109.482 18.2387C108.857 18.0557 108.031 18.0252 106.807 18.2186" stroke="black" stroke-width="4" stroke-linecap="round"/>
<path d="M43.2408 34.0788C42.7525 34.2916 39.0751 37.5659 33.6427 44.9129C30.593 49.0373 30.4208 51.7511 28.0213 59.5057C27.0398 62.6781 26.9329 67.9384 27.0276 74.4746C27.1301 81.5432 30.3449 86.2884 34.8565 91.9378C40.0867 98.487 46.1436 100.75 51.2694 102.559C53.9368 103.5 60.3517 104.635 64.5048 105.641C66.6817 106.168 72.7625 106.377 79.6861 104.368C86.9497 102.26 89.5984 98.5373 93.4792 94.3142C99.0503 88.2517 101.365 82.0669 102.058 80.2584C103.661 76.0721 104.823 70.3832 104.998 63.0916C105.075 59.8607 103.107 57.4877 102.23 55.4745C101.024 52.7057 99.3432 49.2615 97.9241 46.2109C96.0657 42.2162 92.0909 38.7308 86.0189 34.9484C80.6107 31.5794 71.5839 28.9304 68.2747 28.3747C62.3618 27.3818 51.2661 28.5133 47.856 30.0012C46.9273 30.6044 45.5566 31.5798 44.5966 32.3462C43.6367 33.1126 43.1289 33.6405 42.3087 34.3833" stroke="black" stroke-width="4" stroke-linecap="round"/>
<path d="M46.9037 50.9448C46.7954 51.4803 43.6813 59.3693 41.521 67.3989C39.8243 73.7054 42.4834 76.7974 46.437 83.0424C49.1195 87.2796 55.0969 90.6863 61.3178 94.1695C63.7479 95.5302 68.7808 95.3391 76.9428 92.6942C83.5587 90.5502 86.3186 85.6285 87.9078 83.2942C89.7951 80.5221 91.6611 75.729 92.569 70.6863C94.013 62.6667 91.4936 58.3548 89.9382 54.8585C88.2256 51.0086 85.5663 48.6495 82.5562 46.2705C79.2963 43.6941 76.2219 42.6159 73.6778 42.3149C62.8735 41.0366 57.5603 43.9831 55.0347 45.2111C52.6559 46.3677 50.5482 47.7141 48.3523 49.4766C47.8751 49.9046 47.4858 50.2354 47.1013 50.5637C46.7167 50.892 46.3487 51.2076 45.421 52.1723" stroke="black" stroke-width="4" stroke-linecap="round"/>
</svg>
