<svg width="133" height="139" viewBox="0 0 133 139" fill="none" xmlns="http://www.w3.org/2000/svg">
<path d="M118.104 132.79C119.268 132.788 123.013 132.052 125.229 130.004C127.622 127.793 127.347 123.463 128.422 119.916C129.631 115.926 130.244 103.515 130.675 88.2265C130.83 82.6996 130.452 81.6954 130.263 73.0924C130.073 64.4893 129.98 48.3158 129.807 39.2559C129.564 26.5705 127.252 21.5466 125.218 16.6446C123.775 13.1675 121.679 9.00795 119.128 6.59446C115.773 3.42076 107.417 4.61203 95.7861 3.63066C89.7864 3.12445 86.6734 2.86744 75.3625 2.36171C65.368 1.91484 46.7058 1.95799 35.5647 2.09051C21.3509 2.25958 16.4778 3.73179 13.5418 4.86817C9.00899 6.6226 5.60346 14.3498 4.36011 22.2807C3.6341 26.9117 4.2404 35.4663 3.86725 42.8701C3.18778 56.3518 1.98636 67.6091 2.00012 75.7065C2.01497 84.4477 3.24916 96.838 3.66513 107.412C4.01484 116.302 4.89882 120.252 7.19109 124.7C10.337 130.804 16.0933 133.167 19.3264 134.471C24.2053 136.439 32.327 135.671 50.9755 136.035C64.7566 136.304 75.7674 133.906 81.8411 133.406C83.4905 133.218 84.8897 133.001 90.4177 132.889C95.9457 132.778 105.56 132.778 116.004 132.391" stroke="black" stroke-width="4" stroke-linecap="round"/>
<path d="M24.451 56.1844C24.451 56.2295 24.451 56.2745 24.5128 66.1038C24.5745 75.933 24.698 95.5452 24.778 105.899C24.8581 116.253 24.891 116.754 25.1242 117.031C27.5985 119.975 36.9127 116.261 40.6499 115.892C42.0382 115.754 42.2214 114.784 42.4897 107.398C42.758 100.012 43.0617 86.0004 43.2272 76.8883C43.5401 59.6581 43.2242 58.3053 43.0934 57.4323C42.701 56.7404 36.8557 56.4339 28.1426 56.4157C25.0053 56.3979 24.4755 56.363 23.9297 56.3271" stroke="black" stroke-width="4" stroke-linecap="round"/>
<path d="M33.8122 23.6707C33.0244 23.6707 30.6986 23.9743 28.6008 25.4781C25.5159 27.6895 24.606 31.4178 23.988 34.3454C23.0604 38.7395 24.8773 40.6636 26.728 43.3531C28.7712 46.3223 32.72 46.9308 34.8353 47.2717C37.6283 47.7218 40.4322 45.3662 42.5383 43.3495C44.4702 41.4996 45.3073 39.2352 46.0589 37.3625C46.9844 35.0565 46.0114 32.205 43.8501 28.3758C42.673 26.2905 40.4103 25.0257 38.1806 23.9534C37.3149 23.6061 36.5218 23.408 35.6285 23.3283C35.1446 23.3011 34.5987 23.3011 34.0361 23.3011" stroke="black" stroke-width="4" stroke-linecap="round"/>
<path d="M56.1138 55.2491C56.1138 55.2911 56.1138 55.3331 56.2118 62.3736C56.3097 69.4142 56.5055 83.4521 56.4768 92.2361C56.438 104.129 55.6358 108.415 55.1922 110.852C54.9495 112.186 55.0158 113.767 54.9887 114.771C54.9616 115.774 54.9272 116.164 56.2049 116.378C65.661 117.965 72.3653 116.467 73.0216 116.169C73.3453 116.022 73.4305 115.54 73.4615 110.912C73.4924 106.283 73.4105 97.4337 73.4115 92.621C73.4129 86.1707 74.9899 81.944 76.1238 78.1823C77.0196 75.2106 80.2447 73.2359 81.9019 72.4598C83.5522 71.6869 86.0944 72.0092 88.2807 71.8353C90.452 71.6627 92.4587 75.0449 93.671 76.8829C94.2806 77.8072 94.6506 78.939 95.4538 82.853C96.1434 86.2128 96.8011 92.4717 97.2171 98.6972C98.0348 110.933 98.0961 117.107 99.4856 116.915C103.853 116.315 106.208 116.159 108.287 115.958C108.895 115.899 109.631 115.858 110.987 115.82C112.344 115.782 114.298 115.75 115.435 112.256C116.572 108.763 116.832 101.809 116.888 97.5024C117.005 88.4614 116.4 82.8879 115.934 80.0298C115.385 76.6591 115.165 71.4479 114.601 68.6916C113.934 65.4313 112.017 63.7398 110.813 62.1975C109.601 60.6465 108.25 59.2004 106.674 57.736C105.111 56.2834 100.993 55.4936 98.0667 55.0951C95.1453 54.6972 91.0778 55.0627 89.2543 55.5498C87.229 56.0908 85.2187 56.9619 82.1964 58.7133C79.1995 60.45 78.0877 62.2663 75.9165 63.8415C74.8958 64.5819 74.277 65.7443 73.7493 66.2482C72.202 67.7258 73.6634 60.5223 73.0445 56.6024C71.1879 55.2131 65.983 55.1319 59.6757 55.0564C57.2981 55.0184 56.5917 54.981 55.778 54.8167" stroke="black" stroke-width="4" stroke-linecap="round"/>
</svg>
