<svg width="165" height="36" viewBox="0 0 165 36" fill="none" xmlns="http://www.w3.org/2000/svg">
<path d="M20.8095 16.8779C19.7043 16.8823 17.0589 17.3064 16.1956 18.1757C15.445 18.9316 15.5276 20.1903 15.6198 21.3813C15.8611 24.4995 19.7152 27.1652 20.3822 29.3106C20.5524 29.8582 20.3523 30.5065 20.1444 30.9982C19.7557 31.9175 18.6849 32.4473 17.5711 32.7259C17.0156 32.8649 16.4083 32.4853 15.9912 32.0123C15.1104 31.0133 15.1102 28.9812 15.3228 27.0314C17.3033 25.1047 19.7806 24.157 21.6395 23.915C22.8024 23.8243 24.4114 23.7987 26.0691 23.7724" stroke="black" stroke-width="2" stroke-linecap="round"/>
<path d="M32.1283 18.3766C32.0912 18.3766 31.23 18.3766 29.7233 18.5145C28.526 18.6242 27.7479 19.7325 27.0706 20.814C26.3982 21.8875 26.2209 23.0905 26.0916 24.2138C25.9466 25.473 26.5167 26.7199 27.343 27.7066C28.0378 28.5363 29.1934 28.9594 30.7227 29.2836C32.6661 29.6955 34.3443 29.0513 35.3341 28.3184C37.3387 26.834 38.5111 24.3188 39.4573 21.771C40.1762 19.8351 40.5326 18.1331 41.4344 17.6064C41.864 17.3555 42.4647 17.6907 42.9643 18.2298C45.7039 21.1862 44.3228 26.1041 44.7419 28.0428C44.9513 29.0118 47.5463 28.8762 49.9715 28.9509C51.5593 28.9998 52.5374 28.2759 53.2957 27.4842C54.8586 25.8525 55.4434 23.2761 55.5272 21.1082C55.5483 20.5619 55.1164 20.0388 54.7068 19.6271C54.2971 19.2154 53.7689 18.9458 53.1989 18.8135C52.6289 18.6812 52.0329 18.6944 51.5744 18.9975C50.5889 19.6491 50.3752 21.0227 50.1745 22.386C49.8826 24.3677 50.3656 26.0924 51.0766 26.9418C51.4099 27.34 51.9569 27.4104 52.477 27.4002C52.9971 27.3899 53.5425 27.2303 54.0003 26.8215C56.625 24.4777 55.0714 19.8937 54.4616 18.9166C54.1662 18.4433 53.6862 18.1614 53.2056 18.0255C52.725 17.8897 52.2039 17.9456 51.9121 18.2972C51.6203 18.6488 51.5736 19.2943 51.6838 19.8424C51.8905 20.8702 52.8457 21.6161 53.8832 22.2518C55.9328 23.5079 57.9673 23.175 58.9439 22.8106C61.1953 21.9707 62.2804 16.7757 63.0459 13.2262C63.6448 10.4492 63.0364 7.82546 62.6194 6.35469C62.2409 5.01994 61.2049 4.15226 60.3007 3.94067C57.0884 3.18897 57.9946 15.2682 58.5845 21.3109C58.8379 23.9069 60.2574 25.6088 60.9736 26.3571C61.7505 27.1688 63.5196 27.0239 65.2501 26.8278C66.8223 26.6496 67.8874 25.3922 68.8367 24.3912C72.1576 20.8891 72.075 8.52498 71.724 2.85328C71.6805 2.1498 71.4316 1.65526 71.1019 1.33802C70.7722 1.02078 70.2709 0.90827 69.8748 1.08319C66.8705 2.41015 67.4304 13.1421 68.8469 21.575C70.2914 25.3636 71.5303 27.1765 73.3303 28.222C73.8267 28.3874 74.3223 28.4748 75.3715 28.5648" stroke="black" stroke-width="2" stroke-linecap="round"/>
<path d="M93.2416 22.0456C93.2416 21.9698 93.2416 20.9303 93.0794 19.2253C93.0109 18.5054 92.5927 18.1422 91.7598 17.9209C90.9269 17.6996 89.5954 17.6469 88.736 17.8668C87.8766 18.0867 87.5298 18.5808 87.3156 19.7288C86.7749 22.6272 87.2094 24.9372 87.8336 25.7312C88.4947 26.5722 89.7099 26.725 90.7723 26.683C93.069 26.5922 94.2452 23.9474 95.335 21.729C97.5653 17.1886 96.0017 8.72706 95.393 6.51688C94.3442 2.70911 96.3085 21.6819 98.1252 25.4483C98.6309 26.4967 100.891 26.1461 102.847 26.0058C104.301 25.9014 105.249 24.8757 106.066 24.0119C107.565 22.4265 107.641 20.0396 107.455 18.0557C107.376 17.2163 106.726 16.83 106.076 16.6046C105.425 16.3792 104.639 16.3554 104.075 16.5822C103.028 17.0029 102.677 18.3135 102.377 19.5427C102.011 21.0407 102.447 22.4648 103.05 23.4407C103.666 24.4375 104.883 24.7903 105.939 24.9928C106.462 25.0932 106.981 25.0616 107.413 24.8563C109.817 23.7139 109.031 19.2397 108.849 18.1102C108.765 17.5844 108.304 17.2571 107.869 17.0885C107.435 16.92 106.94 16.9463 106.46 17.1318C105.461 17.5174 104.851 18.533 104.524 19.6049C104.359 20.1459 104.398 20.7333 104.609 21.1883C105.539 23.2013 108.758 22.8016 110.277 22.6039C112.713 22.287 112.595 19.1056 112.662 18.4921C112.947 15.877 112.628 24.5983 113.376 25.297C113.747 25.6446 114.38 25.6038 114.818 25.4321C115.681 25.0936 115.956 23.8733 116.298 23.1799C117.063 21.6268 118.959 25.1329 120.051 25.065C120.6 25.0309 121.06 24.5352 121.369 24.0308C121.995 23.0072 121.927 21.0006 121.685 18.9858C121.592 18.2125 120.957 18.0795 120.591 18.2299C120.224 18.3803 119.992 18.8526 119.998 19.3734C120.004 19.8943 120.257 20.4495 120.594 20.8704C120.932 21.2913 121.346 21.5612 121.823 21.6893C122.301 21.8174 122.83 21.7955 123.325 21.5963C124.346 21.1853 125.078 19.9195 125.755 19.0476C126.155 18.5323 126.741 20.4484 127.222 20.5448C129.893 21.0803 129.213 15.5143 130.004 14.7775C130.384 14.4231 131.042 14.5637 131.524 14.7656C132.007 14.9674 132.376 15.3427 132.689 15.793C133.55 19.7376 133.946 25.1834 134.642 26.012C135.048 26.3703 135.561 26.6023 137.208 26.9055" stroke="black" stroke-width="2" stroke-linecap="round"/>
<path d="M147.236 14.371C147.322 14.371 147.408 14.371 148.788 14.2332C150.168 14.0953 152.84 13.8195 155.592 13.5354" stroke="black" stroke-width="2" stroke-linecap="round"/>
<path d="M149.743 21.0561C149.78 21.0561 149.818 21.0561 150.656 21.0561C151.494 21.0561 153.132 21.0561 154.426 21.0561C155.721 21.0561 156.622 21.0561 158.099 21.0561" stroke="black" stroke-width="2" stroke-linecap="round"/>
<path d="M153.085 27.7411C153.138 27.7411 153.192 27.7411 154.942 28.4225C156.692 29.1039 160.138 30.4666 163.949 31.9193" stroke="black" stroke-width="2" stroke-linecap="round"/>
<path d="M1 13.5354C1.05375 13.5354 1.10751 13.5354 1.50585 13.6527C1.9042 13.77 2.6455 14.0046 3.92652 14.7515C5.20753 15.4984 7.00579 16.7505 10.192 18.5492" stroke="black" stroke-width="2" stroke-linecap="round"/>
<path d="M1 23.563H7.68508" stroke="black" stroke-width="2" stroke-linecap="round"/>
<path d="M5.18546 34.4262C5.16621 34.4262 5.14695 34.4262 5.66336 33.9277C6.17976 33.4293 7.23241 32.4323 7.93708 31.7269C8.64174 31.0215 8.96652 30.6379 10.192 29.4124" stroke="black" stroke-width="2" stroke-linecap="round"/>
</svg>
